<svg width="500" height="500" viewBox="0 0 500 500" fill="none" xmlns="http://www.w3.org/2000/svg">
<g clip-path="url(#clip0_1133_115)">
<path d="M114.554 76.0706L114.563 76.0793L114.572 76.0879L122.562 83.9808C122.565 83.9835 122.568 83.9862 122.57 83.9889C159.565 120.971 222.75 94.7689 222.75 42.4805V31.25C222.75 16.174 234.924 4 250 4C265.076 4 277.25 16.174 277.25 31.25V42.4805C277.25 94.7727 340.444 120.975 377.438 83.9808L385.446 75.973C396.091 65.328 413.382 65.328 424.027 75.973C434.672 86.6179 434.672 103.909 424.027 114.554L416.019 122.562C379.025 159.556 405.227 222.75 457.52 222.75H468.75C483.826 222.75 496 234.924 496 250C496 265.076 483.826 277.25 468.75 277.25H457.617C405.325 277.25 379.123 340.444 416.117 377.438L424.125 385.446C434.77 396.091 434.77 413.382 424.125 424.027C413.48 434.672 396.188 434.672 385.543 424.027L377.535 416.019C340.542 379.025 277.348 405.227 277.348 457.52V468.75C277.348 483.826 265.174 496 250.098 496C235.022 496 222.848 483.826 222.848 468.75V457.52C222.848 405.227 159.654 379.025 122.66 416.019L114.652 424.027C104.007 434.672 86.7155 434.672 76.0706 424.027C65.4257 413.382 65.4257 396.091 76.0706 385.446L76.0793 385.437L76.0879 385.428L83.9808 377.438C83.9839 377.435 83.9871 377.432 83.9902 377.428C120.97 340.433 94.7683 277.25 42.4805 277.25H31.25C16.174 277.25 4 265.076 4 250C4 234.924 16.174 222.75 31.25 222.75H42.4805C94.7619 222.75 120.982 159.564 84.0784 122.66L76.0706 114.652C65.4257 104.007 65.4257 86.7155 76.0706 76.0706C86.7155 65.4257 103.909 65.4257 114.554 76.0706Z" fill="white" stroke="#CBC8C8" stroke-width="12"/>
<path d="M157.818 134.901L157.827 134.909L157.835 134.918L163.183 140.2C163.186 140.203 163.189 140.206 163.192 140.209C188.811 165.814 232.562 147.669 232.562 111.462V103.938C232.562 94.5656 240.128 87 249.5 87C258.872 87 266.438 94.5656 266.438 103.938V111.462C266.438 147.673 310.199 165.818 335.817 140.2L341.182 134.835C347.799 128.219 358.548 128.219 365.165 134.835C371.781 141.452 371.781 152.201 365.165 158.818L359.799 164.183C334.182 189.801 352.327 233.562 388.538 233.562H396.062C405.434 233.562 413 241.128 413 250.5C413 259.872 405.434 267.438 396.062 267.438H388.604C352.392 267.438 334.247 311.199 359.865 336.817L365.23 342.182C371.847 348.799 371.847 359.548 365.23 366.165C358.614 372.781 347.864 372.781 341.247 366.165L335.882 360.799C310.264 335.182 266.503 353.327 266.503 389.538V397.062C266.503 406.434 258.937 414 249.565 414C240.194 414 232.628 406.434 232.628 397.062V389.538C232.628 353.327 188.867 335.182 163.249 360.799L157.883 366.165C151.267 372.781 140.517 372.781 133.901 366.165C127.284 359.548 127.284 348.799 133.901 342.182L133.909 342.173L133.918 342.165L139.2 336.817C139.203 336.814 139.206 336.811 139.209 336.808C164.814 311.189 146.669 267.438 110.462 267.438H102.938C93.5656 267.438 86 259.872 86 250.5C86 241.128 93.5656 233.562 102.938 233.562H110.462C146.662 233.562 164.826 189.809 139.266 164.249L133.901 158.883C127.284 152.267 127.284 141.517 133.901 134.901C140.517 128.284 151.201 128.284 157.818 134.901Z" fill="#EAEAEA" stroke="#CBC8C8" stroke-width="12"/>
</g>
<defs>
<clipPath id="clip0_1133_115">
<rect width="500" height="500" fill="white"/>
</clipPath>
</defs>
</svg>
