<svg width="100" height="100" viewBox="0 0 100 100" fill="none" xmlns="http://www.w3.org/2000/svg">
<g clip-path="url(#clip0_7_295)">
<path d="M15.3556 77.2306L15.3599 77.2262L16.9376 75.629C16.9384 75.6282 16.9392 75.6274 16.9399 75.6266C24.4613 68.1015 19.1315 55.25 8.49609 55.25H6.25C3.34525 55.25 1 52.9047 1 50C1 47.0953 3.34525 44.75 6.25 44.75H8.49609C19.1299 44.75 24.4643 31.8977 16.9571 24.3905L15.3555 22.789C13.3047 20.7381 13.3047 17.4064 15.3555 15.3555C17.4064 13.3047 20.7186 13.3047 22.7695 15.3555L22.7738 15.3599L24.371 16.9376C24.3717 16.9383 24.3724 16.9389 24.3731 16.9396C31.8982 24.4614 44.75 19.1317 44.75 8.49609V6.25C44.75 3.34525 47.0953 1 50 1C52.9047 1 55.25 3.34525 55.25 6.25V8.49609C55.25 19.1326 68.1042 24.4624 75.629 16.9376L77.2305 15.336C79.2814 13.2851 82.6131 13.2851 84.664 15.336C86.7149 17.3869 86.7149 20.7186 84.664 22.7695L83.0624 24.371C75.5376 31.8958 80.8674 44.75 91.5039 44.75H93.75C96.6547 44.75 99 47.0953 99 50C99 52.9047 96.6547 55.25 93.75 55.25H91.5234C80.8869 55.25 75.5571 68.1042 83.082 75.629L84.6835 77.2305C86.7344 79.2814 86.7344 82.6131 84.6835 84.664C82.6326 86.7149 79.301 86.7149 77.2501 84.664L75.6485 83.0624C68.1237 75.5376 55.2695 80.8674 55.2695 91.5039V93.75C55.2695 96.6547 52.9243 99 50.0195 99C47.1148 99 44.7695 96.6547 44.7695 93.75V91.5039C44.7695 80.8674 31.9154 75.5376 24.3905 83.0624L22.789 84.664C20.7381 86.7149 17.4064 86.7149 15.3555 84.664C13.3047 82.6131 13.3047 79.2814 15.3556 77.2306Z" stroke="black" stroke-width="2"/>
<path d="M22.2602 72.0502L22.2645 72.0458L23.5332 70.7614C23.5339 70.7607 23.5346 70.7601 23.5352 70.7594C29.7105 64.5809 25.3344 54.0293 16.6023 54.0293H14.7949C12.5654 54.0293 10.7656 52.2295 10.7656 50C10.7656 47.7705 12.5654 45.9707 14.7949 45.9707H16.6023C25.3326 45.9707 29.7133 35.4187 23.5489 29.2543L22.2601 27.9655C20.6861 26.3915 20.6861 23.8342 22.2601 22.2601C23.8342 20.6861 26.3758 20.6861 27.9498 22.2601L27.9542 22.2645L29.2386 23.5332C29.2393 23.5339 29.24 23.5347 29.2408 23.5354C35.4193 29.7104 45.9707 25.3343 45.9707 16.6023V14.7949C45.9707 12.5654 47.7705 10.7656 50 10.7656C52.2295 10.7656 54.0293 12.5654 54.0293 14.7949V16.6023C54.0293 25.3353 64.5832 29.7114 70.7614 23.5332L72.0502 22.2444C73.6242 20.6704 76.1815 20.6704 77.7556 22.2444C79.3296 23.8185 79.3296 26.3758 77.7556 27.9498L76.4668 29.2386C70.2886 35.4168 74.6647 45.9707 83.3977 45.9707H85.2051C87.4346 45.9707 89.2344 47.7705 89.2344 50C89.2344 52.2295 87.4346 54.0293 85.2051 54.0293H83.4134C74.6804 54.0293 70.3043 64.5832 76.4825 70.7614L77.7713 72.0502C79.3453 73.6242 79.3453 76.1815 77.7713 77.7556C76.1972 79.3296 73.6399 79.3296 72.0659 77.7556L70.7771 76.4668C64.5989 70.2886 54.045 74.6647 54.045 83.3977V85.2051C54.045 87.4346 52.2453 89.2344 50.0157 89.2344C47.7862 89.2344 45.9864 87.4346 45.9864 85.2051V83.3977C45.9864 74.6647 35.4325 70.2886 29.2543 76.4668L27.9655 77.7556C26.3915 79.3296 23.8342 79.3296 22.2601 77.7556C20.6861 76.1815 20.6861 73.6242 22.2602 72.0502Z" stroke="black" stroke-width="2"/>
</g>
<defs>
<clipPath id="clip0_7_295">
<rect width="100" height="100" fill="white"/>
</clipPath>
</defs>
</svg>
