<svg width="121" height="121" viewBox="0 0 121 121" fill="none" xmlns="http://www.w3.org/2000/svg">
<path d="M48.0001 10.1999C47.6001 10.7999 47.0001 11.1999 46.2001 11.3999C45.5001 11.5999 44.8001 11.5999 44.2001 11.2999C43.6001 10.9999 43.2001 10.5999 42.9001 10.0999L43.8001 9.5999C44.0001 9.9999 44.3001 10.3999 44.7001 10.5999C45.2001 10.7999 45.6001 10.8999 46.1001 10.6999C47.0001 10.3999 47.5001 9.6999 47.3001 8.8999C47.1001 8.0999 46.5001 7.9999 45.1001 7.9999C43.4001 8.0999 42.5001 7.5999 42.2001 6.5999C42.0001 5.9999 42.1001 5.3999 42.5001 4.8999C42.9001 4.2999 43.4001 3.9999 44.1001 3.7999C44.8001 3.5999 45.4001 3.5999 46.0001 3.7999C46.6001 3.9999 47.0001 4.3999 47.2001 4.7999L46.3001 5.2999C46.1001 4.9999 45.8001 4.6999 45.4001 4.4999C45.0001 4.2999 44.6001 4.2999 44.2001 4.3999C43.4001 4.5999 42.9001 5.2999 43.1001 5.9999C43.2001 6.2999 43.4001 6.4999 43.7001 6.5999C44.0001 6.6999 44.5001 6.6999 45.1001 6.6999C47.0001 6.5999 47.8001 7.0999 48.2001 8.2999C48.5001 8.9999 48.4001 9.5999 48.0001 10.1999Z" fill="black"/>
<path d="M49.9999 3.49985C50.5999 2.59985 51.4999 2.09985 52.4999 1.99985C53.3999 1.89985 54.3999 2.09985 55.2999 2.59985L54.7999 3.49985C54.0999 2.89985 53.3999 2.59985 52.6999 2.69985C51.9999 2.79985 51.3999 3.19985 50.9999 3.89985C50.5999 4.59985 50.4999 5.39985 50.5999 6.29985C50.6999 7.19985 51.0999 7.89985 51.6999 8.49985C52.2999 9.09985 52.8999 9.29985 53.5999 9.19985C54.2999 9.09985 54.9999 8.69985 55.6999 7.89985L56.1999 8.29985C55.4999 9.19985 54.5999 9.79985 53.4999 9.89985C52.4999 9.99985 51.4999 9.79985 50.6999 9.19985C49.8999 8.59985 49.3999 7.69985 49.1999 6.59985C49.0999 5.39985 49.2999 4.39985 49.9999 3.49985Z" fill="black"/>
<path d="M63.7 9.29995H62L58.9 5.99995L59 9.39995H57.6L57.5 1.69995H60.2C61 1.69995 61.7 1.89995 62.2 2.29995C62.7 2.69995 63 3.29995 63 3.89995C63 4.49995 62.8 4.99995 62.4 5.39995C62 5.79995 61.4 6.09995 60.8 6.09995L63.7 9.29995ZM58.8 2.29995L58.9 5.59995H59.9C60.9 5.59995 61.6 4.99995 61.6 3.89995C61.6 2.79995 60.8 2.29995 59.9 2.29995H58.8Z" fill="black"/>
<path d="M70.5001 9.19997C69.6001 9.89997 68.6001 10.1 67.6001 9.89997C66.6001 9.69997 65.6001 9.19997 65.0001 8.39997C64.3001 7.49997 64.1001 6.49997 64.3001 5.49997C64.5001 4.39997 65.0001 3.49997 65.8001 2.89997C66.7001 2.19997 67.7001 1.99997 68.7001 2.19997C69.7001 2.39997 70.7001 2.89997 71.3001 3.69997C72.0001 4.59997 72.2001 5.59997 72.0001 6.59997C71.9001 7.69997 71.4001 8.49997 70.5001 9.19997ZM70.3001 3.99997C69.9001 3.29997 69.4001 2.89997 68.6001 2.79997C67.9001 2.69997 67.3001 2.89997 66.7001 3.49997C66.1001 4.09997 65.8001 4.79997 65.6001 5.69997C65.4001 6.59997 65.6001 7.39997 66.0001 8.09997C66.4001 8.79997 66.9001 9.19997 67.7001 9.29997C68.4001 9.39997 69.0001 9.19997 69.6001 8.59997C70.2001 7.99997 70.5001 7.29997 70.7001 6.39997C70.8001 5.49997 70.7001 4.69997 70.3001 3.99997Z" fill="black"/>
<path d="M77.4002 12.1999L72.7002 10.7999L74.9002 3.3999L76.2002 3.7999L74.2002 10.5999L77.7002 11.4999L77.4002 12.1999Z" fill="black"/>
<path d="M82.8999 14.5L78.3999 12.6L81.3999 5.5L82.5999 6L79.7999 12.5L83.0999 13.8L82.8999 14.5Z" fill="black"/>
<path d="M94.4999 13.3999L91.5999 11.3999L89.9999 13.6999L92.7999 15.5999L92.3999 16.1999L89.5999 14.2999L87.5999 17.2999L86.3999 16.4999L90.6999 10.0999L94.7999 12.7999L94.4999 13.3999Z" fill="black"/>
<path d="M96.9999 23.3C95.8999 23.4 94.9999 23 94.0999 22.3C93.1999 21.6 92.7999 20.7 92.7999 19.6C92.6999 18.5 93.0999 17.6 93.7999 16.7C94.4999 15.9 95.3999 15.4 96.4999 15.4C97.5999 15.3 98.4999 15.7 99.3999 16.4C100.2 17.1 100.7 18 100.7 19.1C100.8 20.2 100.4 21.1 99.6999 22C98.9999 22.8 98.0999 23.3 96.9999 23.3ZM99.6999 18.9C99.7999 18.1 99.4999 17.5 98.9999 17C98.4999 16.5 97.7999 16.4 96.9999 16.5C96.1999 16.6 95.4999 17.1 94.8999 17.7C94.2999 18.4 93.9999 19.1 93.8999 19.9C93.8999 20.7 94.0999 21.3 94.5999 21.8C95.0999 22.3 95.7999 22.4 96.5999 22.3C97.3999 22.2 98.0999 21.7 98.6999 21.1C99.2999 20.4 99.5999 19.7 99.6999 18.9Z" fill="black"/>
<path d="M101.9 30.6L100.8 29.3L101.4 24.8L98.7999 26.9L97.8999 25.9L103.9 21L105.6 23.1C106.1 23.7 106.4 24.4 106.3 25.1C106.3 25.8 106 26.3 105.5 26.8C105.1 27.2 104.5 27.3 103.9 27.2C103.3 27.1 102.8 26.9 102.3 26.4L101.9 30.6ZM104.2 22.4L101.7 24.5L102.3 25.3C102.9 26 103.8 26.3 104.6 25.6C105.4 24.9 105.4 24 104.8 23.2L104.2 22.4Z" fill="black"/>
<path d="M108.1 41.9L107.4 40.5L111.4 36.6L105.6 37.3L105.4 36.9L109.3 32.6L103.8 33.5L103.4 32.7L111.5 31.5L111.7 31.9L107.7 36.2L113.5 35.5L113.7 35.9L108.1 41.9Z" fill="black"/>
<path d="M111 48.3999C110 47.8999 109.4 47.0999 109.1 45.9999C108.8 44.8999 108.9 43.8999 109.4 42.9999C109.9 41.9999 110.7 41.3999 111.8 41.0999C112.9 40.7999 113.9 40.8999 114.8 41.3999C115.8 41.8999 116.4 42.6999 116.7 43.7999C117 44.8999 116.9 45.8999 116.4 46.7999C115.9 47.7999 115.1 48.3999 114 48.6999C113 48.9999 112 48.8999 111 48.3999ZM115.6 45.9999C116.1 45.2999 116.2 44.6999 116 43.9999C115.8 43.2999 115.3 42.7999 114.6 42.4999C113.9 42.1999 113 42.1999 112.2 42.3999C111.3 42.6999 110.7 43.0999 110.2 43.7999C109.7 44.4999 109.6 45.0999 109.8 45.7999C110 46.4999 110.5 46.9999 111.2 47.2999C112 47.5999 112.8 47.5999 113.6 47.3999C114.5 47.0999 115.2 46.5999 115.6 45.9999Z" fill="black"/>
<path d="M111.3 57.1L111.1 55.4L114 51.9L110.7 52.3L110.5 51L118.2 50L118.6 52.7C118.7 53.5 118.6 54.2 118.2 54.8C117.8 55.4 117.3 55.7 116.7 55.8C116.1 55.9 115.6 55.7 115.1 55.3C114.6 54.9 114.3 54.4 114.2 53.8L111.3 57.1ZM117.6 51.4L114.4 51.8L114.5 52.8C114.6 53.8 115.3 54.4 116.3 54.3C117.3 54.2 117.8 53.3 117.7 52.4L117.6 51.4Z" fill="black"/>
<path d="M111.3 62.5999L111.2 57.6999L118.9 57.5999L119 62.4999H118.2V58.8999H115.4L115.5 62.2999H114.8V58.8999H111.9L112 62.4999L111.3 62.5999Z" fill="black"/>
<path d="M111.8 64.2C112.2 64.2 112.5 64.6 112.5 65C112.5 65.4 112.1 65.7 111.7 65.6C111.3 65.6 111 65.2 111 64.8C111 64.4 111.3 64.2 111.8 64.2Z" fill="black"/>
<path d="M109.8 74.5999C109.5 73.9999 109.4 73.1999 109.6 72.4999C109.8 71.7999 110.1 71.1999 110.7 70.7999C111.2 70.3999 111.8 70.1999 112.4 70.2999V71.2999C112 71.1999 111.5 71.2999 111.1 71.5999C110.7 71.8999 110.4 72.2999 110.3 72.6999C110.1 73.5999 110.5 74.4999 111.3 74.6999C112 74.8999 112.5 74.4999 113.1 73.1999C113.9 71.6999 114.7 71.1999 115.8 71.3999C116.4 71.5999 116.9 71.8999 117.1 72.4999C117.4 73.0999 117.4 73.7999 117.3 74.4999C117.1 75.1999 116.8 75.6999 116.3 76.0999C115.8 76.4999 115.3 76.6999 114.8 76.5999V75.5999C115.2 75.5999 115.5 75.4999 115.9 75.1999C116.2 74.8999 116.5 74.5999 116.6 74.1999C116.8 73.3999 116.5 72.6999 115.8 72.4999C115.5 72.3999 115.2 72.4999 115 72.6999C114.8 72.8999 114.5 73.2999 114.2 73.8999C113.3 75.5999 112.5 76.0999 111.2 75.7999C110.6 75.6999 110.1 75.2999 109.8 74.5999Z" fill="black"/>
<path d="M114.6 79.6C115 80.6 115.1 81.6 114.7 82.5C114.3 83.4 113.7 84.1 112.8 84.7L112.3 83.8C113.2 83.5 113.8 83 114 82.4C114.3 81.7 114.2 81 113.8 80.3C113.4 79.6 112.8 79.1 111.9 78.8C111 78.5 110.2 78.4 109.5 78.6C108.7 78.8 108.2 79.3 108 79.9C107.7 80.6 107.8 81.4 108.1 82.4L107.5 82.6C107 81.5 107 80.5 107.4 79.4C107.8 78.4 108.5 77.7 109.4 77.3C110.4 76.9 111.4 76.9 112.4 77.3C113.5 78 114.2 78.7 114.6 79.6Z" fill="black"/>
<path d="M102.8 88.7L103.7 87.2L108.1 86.2L105.2 84.5L105.9 83.3L112.6 87.1L111.3 89.5C110.9 90.2 110.4 90.7 109.7 90.9C109.1 91.1 108.5 91.1 107.9 90.8C107.4 90.5 107.1 90.1 106.9 89.5C106.8 88.9 106.8 88.3 107.1 87.7L102.8 88.7ZM111.2 88L108.4 86.4L107.9 87.3C107.4 88.1 107.5 89.1 108.5 89.6C109.5 90.1 110.3 89.8 110.8 88.9L111.2 88Z" fill="black"/>
<path d="M99.4001 94.5999C99.3001 93.4999 99.5001 92.4999 100.2 91.6999C100.9 90.8999 101.8 90.2999 102.8 90.1999C103.9 90.0999 104.9 90.2999 105.7 90.9999C106.6 91.6999 107.1 92.5999 107.2 93.5999C107.3 94.5999 107.1 95.6999 106.4 96.4999C105.7 97.3999 104.8 97.8999 103.8 97.9999C102.7 98.0999 101.7 97.8999 100.9 97.1999C100.1 96.5999 99.6001 95.6999 99.4001 94.5999ZM104.1 96.9999C104.9 96.9999 105.5 96.6999 106 96.1999C106.5 95.6999 106.6 94.9999 106.4 94.1999C106.2 93.3999 105.8 92.7999 105 92.1999C104.3 91.5999 103.5 91.2999 102.7 91.2999C101.9 91.2999 101.3 91.5999 100.8 92.0999C100.3 92.5999 100.2 93.2999 100.4 94.0999C100.6 94.8999 101 95.4999 101.8 96.0999C102.6 96.6999 103.3 96.9999 104.1 96.9999Z" fill="black"/>
<path d="M93.3999 99.1L96.9999 95.7L102.3 101.3L101.3 102.2L96.3999 97.1L93.9999 99.6L93.3999 99.1Z" fill="black"/>
<path d="M88.7002 102.7L92.6002 99.7L97.3002 105.9L96.2002 106.7L92.0002 101.1L89.2002 103.3L88.7002 102.7Z" fill="black"/>
<path d="M83.8 113.3L87 111.8L85.8 109.3L82.8 110.8L82.5 110.1L85.5 108.6L83.9 105.4L85.1 104.8L88.6 111.7L84.2 113.9L83.8 113.3Z" fill="black"/>
<path d="M74 110.5C74.5 109.5 75.3 108.9 76.3 108.5C77.3 108.2 78.4 108.2 79.3 108.7C80.3 109.2 80.9 110 81.3 111C81.6 112 81.6 113.1 81.1 114C80.6 115 79.8 115.6 78.8 116C77.8 116.3 76.7 116.3 75.8 115.8C74.8 115.3 74.2 114.5 73.8 113.5C73.4 112.5 73.5 111.5 74 110.5ZM76.5 115.1C77.2 115.6 77.8 115.7 78.5 115.4C79.2 115.2 79.6 114.7 79.9 113.9C80.2 113.1 80.2 112.3 79.9 111.5C79.6 110.7 79.1 110 78.5 109.5C77.8 109.1 77.2 108.9 76.5 109.2C75.8 109.4 75.4 109.9 75.1 110.7C74.8 111.5 74.8 112.3 75.1 113.1C75.4 113.9 75.9 114.6 76.5 115.1Z" fill="black"/>
<path d="M65.3003 111.1L67.0003 110.8L70.6003 113.6L70.0003 110.3L71.3003 110.1L72.6003 117.7L69.9003 118.2C69.1003 118.3 68.4003 118.2 67.8003 117.9C67.2003 117.6 66.9003 117.1 66.8003 116.4C66.7003 115.8 66.8003 115.3 67.2003 114.8C67.6003 114.3 68.1003 114 68.7003 113.8L65.3003 111.1ZM71.2003 117.3L70.7003 114.1L69.7003 114.3C68.7003 114.5 68.1003 115.2 68.3003 116.2C68.5003 117.2 69.3003 117.7 70.3003 117.5L71.2003 117.3Z" fill="black"/>
<path d="M52.3003 110.9L53.8003 111L55.2003 116.4L57.5003 111.1H57.9003L59.6003 116.7L61.6003 111.4H62.5003L59.5003 119.1H59.0003L57.2003 113.5L54.9003 118.9H54.4003L52.3003 110.9Z" fill="black"/>
<path d="M45.2999 110.2C46.1999 109.6 47.1999 109.5 48.2999 109.7C49.3999 109.9 50.1999 110.6 50.7999 111.5C51.3999 112.4 51.4999 113.4 51.2999 114.5C50.9999 115.6 50.3999 116.4 49.4999 117C48.5999 117.6 47.5999 117.7 46.4999 117.5C45.3999 117.2 44.5999 116.6 43.9999 115.7C43.3999 114.8 43.2999 113.8 43.4999 112.7C43.6999 111.5 44.2999 110.7 45.2999 110.2ZM44.9999 115.4C45.2999 116.1 45.7999 116.6 46.4999 116.8C47.1999 117 47.7999 116.8 48.4999 116.3C49.0999 115.8 49.4999 115.1 49.7999 114.2C49.9999 113.3 49.9999 112.5 49.5999 111.8C49.2999 111.1 48.7999 110.6 48.0999 110.5C47.3999 110.3 46.7999 110.5 46.0999 111C45.4999 111.5 45.0999 112.2 44.7999 113.1C44.5999 113.8 44.6999 114.6 44.9999 115.4Z" fill="black"/>
<path d="M37.6 106.1L39.2 106.7L40.8 111L42.1 107.9L43.4 108.4L40.5 115.6L38 114.6C37.3 114.3 36.7 113.8 36.4 113.2C36.1 112.6 36.1 112 36.3 111.4C36.5 110.9 36.9 110.5 37.5 110.3C38.1 110.1 38.6 110.1 39.3 110.3L37.6 106.1ZM39.4 114.4L40.6 111.4L39.7 111C38.8 110.6 37.9 110.9 37.5 111.9C37.1 112.9 37.6 113.7 38.5 114.1L39.4 114.4Z" fill="black"/>
<path d="M32.8 103.3L37.1 105.7L33.3 112.4L29 110L29.4 109.3L32.5 111.1L33.9 108.7L30.9 107L31.3 106.4L34.3 108.1L35.7 105.6L32.6 103.9L32.8 103.3Z" fill="black"/>
<path d="M31.2 102.9C31 103.3 30.5 103.3 30.2 103.1C29.9 102.9 29.8 102.4 30 102.1C30.2 101.8 30.7 101.7 31 101.9C31.4 102.1 31.5 102.6 31.2 102.9Z" fill="black"/>
<path d="M23.1 96C23.8 96.1 24.5 96.4 25 96.9C25.6 97.4 25.9 98 26 98.7C26.1 99.4 25.9 99.9 25.6 100.4L24.7 99.9C25 99.6 25.1 99.1 25.1 98.6C25.1 98.1 24.9 97.7 24.5 97.3C23.8 96.6 22.9 96.6 22.3 97.2C21.8 97.7 21.9 98.3 22.7 99.5C23.6 100.9 23.7 101.9 22.9 102.7C22.5 103.2 21.9 103.4 21.3 103.3C20.6 103.2 20 103 19.5 102.4C19 101.9 18.7 101.4 18.6 100.8C18.5 100.2 18.6 99.7 18.9 99.3L19.8 99.8C19.6 100.1 19.5 100.5 19.6 100.9C19.7 101.3 19.8 101.7 20.1 102C20.7 102.6 21.5 102.6 22 102.1C22.2 101.9 22.3 101.6 22.2 101.3C22.1 101 21.9 100.6 21.6 100C20.6 98.4 20.6 97.4 21.5 96.5C21.9 96.2 22.4 96 23.1 96Z" fill="black"/>
<path d="M16.4003 97.6999C15.3003 97.5999 14.5003 97.0999 13.8003 96.2999C13.2003 95.4999 12.9003 94.5999 12.8003 93.5999H13.8003C13.7003 94.4999 13.8003 95.2999 14.2003 95.7999C14.7003 96.3999 15.3003 96.6999 16.1003 96.5999C16.9003 96.5999 17.7003 96.2999 18.4003 95.6999C19.1003 95.0999 19.6003 94.4999 19.8003 93.6999C20.0003 92.8999 19.9003 92.2999 19.4003 91.6999C18.9003 91.0999 18.2003 90.6999 17.2003 90.4999L17.3003 89.8999C18.5003 89.9999 19.4003 90.4999 20.1003 91.3999C20.7003 92.1999 21.0003 93.0999 20.9003 94.1999C20.8003 95.1999 20.3003 96.0999 19.4003 96.7999C18.5003 97.4999 17.5003 97.7999 16.4003 97.6999Z" fill="black"/>
<path d="M14.4999 82.8999L15.3999 84.3999L13.9999 88.6999L16.8999 86.9999L17.5999 88.1999L10.8999 92.0999L9.49995 89.7999C9.09995 89.0999 8.89995 88.3999 9.09995 87.7999C9.19995 87.0999 9.59995 86.5999 10.0999 86.2999C10.5999 85.9999 11.0999 85.8999 11.6999 86.0999C12.2999 86.2999 12.6999 86.5999 13.0999 87.1999L14.4999 82.8999ZM10.7999 90.5999L13.5999 88.9999L13.0999 88.0999C12.5999 87.2999 11.6999 86.8999 10.7999 87.3999C9.89995 87.8999 9.79995 88.8999 10.2999 89.6999L10.7999 90.5999Z" fill="black"/>
<path d="M11 77.0999C12 77.4999 12.7 78.2999 13.1 79.2999C13.5 80.2999 13.5 81.2999 13.1 82.2999C12.7 83.2999 11.9 83.9999 10.9 84.3999C9.9 84.7999 8.9 84.7999 7.9 84.3999C6.9 83.9999 6.2 83.1999 5.8 82.1999C5.4 81.1999 5.4 80.1999 5.8 79.1999C6.2 78.1999 7 77.4999 8 77.0999C9 76.5999 10 76.5999 11 77.0999ZM6.6 79.8999C6.2 80.5999 6.1 81.2999 6.4 81.8999C6.7 82.4999 7.2 82.9999 8 83.1999C8.8 83.3999 9.6 83.3999 10.4 82.9999C11.2 82.6999 11.9 82.0999 12.3 81.3999C12.7 80.6999 12.8 79.9999 12.5 79.3999C12.2 78.7999 11.7 78.2999 10.9 78.0999C10.1 77.9999 9.3 77.9999 8.5 78.3999C7.6 78.6999 7 79.1999 6.6 79.8999Z" fill="black"/>
<path d="M10.1 69.5999L11.3 74.3999L3.8 76.1999L3.5 74.9999L10.3 73.2999L9.4 69.7999L10.1 69.5999Z" fill="black"/>
<path d="M9.4001 63.7L10.0001 68.5999L2.3001 69.5L2.1001 68.1999L9.1001 67.3L8.6001 63.7999L9.4001 63.7Z" fill="black"/>
<path d="M2.6001 54.3L2.3001 57.8L5.1001 58L5.3001 54.6H6.0001L5.8001 58L9.4001 58.2001L9.3001 59.6L1.6001 59.2001L1.9001 54.3H2.6001Z" fill="black"/>
<path d="M9.9 46.9999C10.5 47.8999 10.7 48.8999 10.5 49.9999C10.3 51.0999 9.7 51.8999 8.8 52.4999C7.9 53.0999 6.9 53.2999 5.8 53.0999C4.7 52.8999 3.9 52.2999 3.3 51.3999C2.7 50.4999 2.5 49.4999 2.7 48.3999C2.9 47.2999 3.5 46.4999 4.4 45.8999C5.3 45.2999 6.3 45.0999 7.4 45.2999C8.5 45.5999 9.3 46.0999 9.9 46.9999ZM4.7 46.9999C4 47.3999 3.5 47.8999 3.4 48.5999C3.3 49.2999 3.4 49.8999 4 50.5999C4.5 51.1999 5.2 51.5999 6.1 51.7999C7 51.9999 7.8 51.8999 8.5 51.4999C9.2 51.0999 9.6 50.5999 9.8 49.8999C10 49.1999 9.8 48.5999 9.2 47.8999C8.7 47.2999 8 46.8999 7.1 46.6999C6.2 46.5999 5.4 46.5999 4.7 46.9999Z" fill="black"/>
<path d="M13.7003 39.3L13.1003 40.9L8.90029 42.6L12.0003 43.8L11.6003 45L4.30029 42.3L5.20029 39.8C5.60029 39 6.00029 38.5 6.60029 38.2C7.20029 37.9 7.80029 37.8 8.40029 38C8.90029 38.2 9.30029 38.6 9.60029 39.1C9.80029 39.6 9.90029 40.2 9.70029 40.9L13.7003 39.3ZM5.50029 41.3L8.60029 42.4L8.90029 41.5C9.20029 40.6 9.00029 39.7 8.00029 39.3C7.00029 38.9 6.20029 39.4 5.90029 40.3L5.50029 41.3Z" fill="black"/>
<path d="M20.4003 28.2L19.6003 29.5L14.2003 28L17.7003 32.6L17.5003 32.9L11.8003 31.6L15.4003 35.9L14.9003 36.6L9.80029 30.2L10.1003 29.8L15.8003 31.1L12.3003 26.4L12.6003 26L20.4003 28.2Z" fill="black"/>
<path d="M24.5001 22.4C24.5001 23.5 24.2001 24.4 23.4001 25.2C22.6001 26 21.7001 26.4 20.6001 26.4C19.5001 26.4 18.6001 26.1 17.8001 25.3C17.0001 24.5 16.6001 23.6 16.6001 22.5C16.6001 21.4 16.9001 20.5 17.7001 19.7C18.5001 18.9 19.4001 18.5 20.5001 18.5C21.6001 18.5 22.5001 18.8 23.3001 19.6C24.1001 20.4 24.5001 21.3 24.5001 22.4ZM20.1001 19.6C19.3001 19.5 18.7001 19.7 18.2001 20.2C17.7001 20.7 17.5001 21.4 17.6001 22.2C17.7001 23 18.1001 23.7 18.8001 24.3C19.5001 24.9 20.2001 25.3 21.0001 25.4C21.8001 25.5 22.4001 25.3 22.9001 24.7C23.4001 24.2 23.6001 23.5 23.5001 22.7C23.4001 21.9 23.0001 21.2 22.3001 20.6C21.6001 20 20.9001 19.7 20.1001 19.6Z" fill="black"/>
<path d="M31.9003 17.8L30.5003 18.9L26.0003 18.1L28.1003 20.7L27.0003 21.5L22.3003 15.4L24.4003 13.7C25.0003 13.2 25.7003 13 26.4003 13C27.1003 13 27.6003 13.3 28.0003 13.8C28.4003 14.3 28.5003 14.8 28.4003 15.4C28.3003 16 28.0003 16.5 27.5003 17L31.9003 17.8ZM23.8003 15.2L25.8003 17.8L26.6003 17.2C27.4003 16.6 27.6003 15.7 27.0003 14.9C26.4003 14.1 25.4003 14.1 24.6003 14.7L23.8003 15.2Z" fill="black"/>
<path d="M36.8001 15L32.5001 17.5L28.6001 10.8L32.9001 8.30005L33.2001 9.00005L30.1001 10.8L31.5001 13.2L34.5001 11.4L34.9001 12L31.9001 13.7L33.4001 16.2L36.5001 14.3L36.8001 15Z" fill="black"/>
<path d="M37.8002 13.7999C37.6002 13.3999 37.8002 12.9999 38.1002 12.7999C38.5002 12.5999 38.9002 12.7999 39.1002 13.1999C39.3002 13.5999 39.1002 13.9999 38.8002 14.1999C38.4002 14.2999 38.0002 14.1999 37.8002 13.7999Z" fill="black"/>
</svg>
